<?xml version="1.0" encoding="UTF-8"?>
<svg id="Layer_2" data-name="Layer 2" xmlns="http://www.w3.org/2000/svg" viewBox="0 0 334.59 218.71">
  <defs>
    <style>
      .cls-1, .cls-2, .cls-3 {
        fill-rule: evenodd;
      }

      .cls-1, .cls-2, .cls-3, .cls-4, .cls-5 {
        stroke-width: 0px;
      }

      .cls-1, .cls-5 {
        fill: #3f51b5;
      }

      .cls-2 {
        fill: #fff;
      }

      .cls-3 {
        fill: #b49664;
      }
    </style>
  </defs>
  <g id="LOGO">
    <g>
      <path class="cls-5" d="m334.59,107.83c0,14.02-2.27,26.84-6.79,38.6-4.14,10.56-9.61,20.04-16.36,28.46-.53-13.84-3.66-27.02-8.95-39.04,3.2-8.7,4.79-18.03,4.79-28.01,0-10.72-1.96-20.82-5.73-30.47-3.92-9.5-9.95-18.4-17.95-26.39-7.99-7.99-16.89-13.88-26.38-17.8-9.66-3.92-19.76-5.87-30.47-5.87H71.72v41.49c-.19.05-.38.1-.58.14-5.61,1.39-10.51,2.07-14.98,2.07-3.96,0-7.57-.54-11-1.63-.25-.08-.49-.17-.73-.25V0h182.34c20.21,0,38.3,4.82,54.14,14.48,16.28,9.8,29.4,22.92,39.35,39.36,9.5,15.99,14.33,33.94,14.33,54Z"/>
      <path class="cls-4" d="m278.76,173.55h-5.07c.47-.35.92-.71,1.38-1.07,1.24.29,2.47.65,3.69,1.07Z"/>
      <path class="cls-2" d="m161.77,33.4c-3.29,10.96-19.28,24.98,0,31.25,19.34-6.27,3.35-20.29,0-31.25Zm132.54,167.5c-2.23-1.11-4.28-2.35-6.13-3.76-1.56-1.15-2.99-2.43-4.28-3.81-1.32-1.32-2.74-3.24-4.35-5.77-9.39,2.34-19.83,2.55-29.38.48-1.06-.22-2.11-.47-3.15-.76.05.4.07.77.1,1.12.04.42.05.8.05,1.18,0,12.87-13.29,18.87-39.91,17.82v11.32h115.87v-11.32c-11.77-.65-21.37-2.8-28.82-6.5Zm-218.35-11.32c0-.6.05-1.19.1-1.92-10.4,2.56-22.03,2.43-32.3-.42-1.69,2.66-3.16,4.67-4.53,6.09-7.88,8.43-20.94,13.06-39.22,14.07v11.32h115.87v-11.32c-26.62,1.06-39.91-4.95-39.91-17.82Zm224.26-30.01l-4.29-10.19-28.7-68.2c5.91-1.47,11.59-5.05,17.55-11.92-17.83,9.49-38.3.6-58.68-6.27-.16-.05-.3-.11-.43-.17-.1-.04-.19-.07-.29-.12-.9-.43-1.61-1.06-2.16-1.84-.02-.02-.02-.04-.02-.04-.07-.1-.13-.19-.19-.3l-.71-.05c-18.61-7.05-35.75-2.71-37.59-2.22-.07.02-.12.04-.14.05h-.01c-7.99,2.37-15.63,7.53-22.78,17.05-22.82-30.48-51.08-16.59-78.31-7.56-3.94,1.3-7.86,2.51-11.74,3.46-5.29,1.31-10.48,2.14-15.56,2.14-4,0-7.92-.53-11.74-1.75-1.9-.61-3.77-1.39-5.61-2.38,1.9,2.2,3.76,4.06,5.61,5.62,3.9,3.28,7.76,5.24,11.74,6.27.34.1.68.18,1.02.25l-.18.43-.84,1.99-1.3,3.1-2.53,5.99-28.64,68.05c5.36,28.77,68.68,28.77,74.08,0l-17.24-40.95-15.98-37.94c5.71-.08,11.87-1.36,18.9-2.9.74-.16,1.5-.32,2.27-.49,1.55-.32,3.11.18,4.12,1.42,1.06,1.24,1.29,2.84.64,4.35l-7.03,16.57-.2.48c-.46,1.09-.46,2.2,0,3.3l.2.48,10.92,25.95,22.18-52.18c1.43-3.39,4.77-5.41,8.43-5.08,8.61.73,16.9,3.71,23.92,11.68,5.18,5.87-3.48,19.52,12.64,26.9l.23.13.28-.13c16.13-7.38,7.47-21.02,12.65-26.9,13.29-15.06,31.1-12.36,46.91-10.03,15.99,2.34,27.86,6.6,38.35,6.46l-9.95,23.69c-.68,1.6-2.15,2.56-3.89,2.56-1.74.05-3.21-.96-3.89-2.52l-7.28-16.99c-4.72-1.01-9.67-2.02-14.9-2.8-3.48-.5-7.1-1.11-10.67-1.42l24.23,56.76c.46,1.09.46,2.2,0,3.29l-6.87,16.31c2.44,12.97,16.65,20.1,32,21.36,4.07.35,8.22.26,12.25-.22,14.51-1.73,27.52-8.78,29.83-21.14l-.6-1.42Zm-224.53-39.54l17.45,40.72c.46,9.53-65.29,9.53-64.88,0l26.57-62,1.32-3.09,1.2-2.8,3.34-7.8,14.99,34.96Zm205.87,46.83c-19.23,2.51-50.52.48-50.2-6.1l32.44-75.68,29.36,68.51,3.08,7.17c.13,2.94-6.05,4.97-14.67,6.1Z"/>
      <path class="cls-1" d="m161.74,25.12l-.65,2.17h1.31l-.66-2.17Z"/>
      <path class="cls-1" d="m161.77,33.4c-3.29,10.96-19.28,24.98,0,31.25,19.34-6.27,3.35-20.29,0-31.25Zm132.54,167.5c-2.23-1.11-4.28-2.35-6.13-3.76-1.56-1.15-2.99-2.43-4.28-3.81-1.32-1.32-2.74-3.24-4.35-5.77-9.39,2.34-19.83,2.55-29.38.48-1.06-.22-2.11-.47-3.15-.76.05.4.07.77.1,1.12.04.42.05.8.05,1.18,0,12.87-13.29,18.87-39.91,17.82v11.32h115.87v-11.32c-11.77-.65-21.37-2.8-28.82-6.5Zm-218.35-11.32c0-.6.05-1.19.1-1.92-10.4,2.56-22.03,2.43-32.3-.42-1.69,2.66-3.16,4.67-4.53,6.09-7.88,8.43-20.94,13.06-39.22,14.07v11.32h115.87v-11.32c-26.62,1.06-39.91-4.95-39.91-17.82Zm224.26-30.01l-4.29-10.19-28.7-68.2c5.91-1.47,11.59-5.05,17.55-11.92-6.29,3.35-13.39,4.48-20.45,4.04-7.44-.46-14.7-2.45-21.77-4.71-3.73-1.19-7.5-2.3-11.18-3.66-5.37-1.99-10.29-5.16-15.87-6.55-1.35-.34-2.71-.63-4.08-.88-3.46-.62-6.96-.94-10.47-1-4.77-.08-9.58.31-14.25,1.29-.66.14-1.36.26-2,.47-.07.02-.12.04-.16.05-7.99,2.37-15.63,7.53-22.78,17.05-22.82-30.48-51.08-16.59-78.31-7.56-3.94,1.3-7.86,2.51-11.74,3.46-5.29,1.31-10.48,2.14-15.56,2.14-4,0-7.92-.53-11.74-1.75-1.9-.61-3.77-1.39-5.61-2.38,1.9,2.2,3.76,4.06,5.61,5.62,3.9,3.28,7.76,5.24,11.74,6.27.34.1.68.18,1.02.25l-.18.43-.84,1.99-1.3,3.1-2.53,5.99-28.64,68.05c5.36,28.77,68.68,28.77,74.08,0l-17.24-40.95-15.98-37.94c5.71-.08,11.87-1.36,18.9-2.9.74-.16,1.5-.32,2.27-.49,1.55-.32,3.11.18,4.12,1.42,1.06,1.24,1.29,2.84.64,4.35l-7.03,16.57-.2.48c-.46,1.09-.46,2.2,0,3.3l.2.48,10.92,25.95,22.18-52.18c1.43-3.39,4.77-5.41,8.43-5.08,8.61.73,16.9,3.71,23.92,11.68,5.18,5.87-3.48,19.52,12.64,26.9l.23.13.28-.13c16.13-7.38,7.47-21.02,12.65-26.9,13.29-15.06,31.1-12.36,46.91-10.03,15.99,2.34,27.86,6.6,38.35,6.46l-9.95,23.69c-.68,1.6-2.15,2.56-3.89,2.56-1.74.05-3.21-.96-3.89-2.52l-7.28-16.99c-4.72-1.01-9.67-2.02-14.9-2.8-3.48-.5-7.1-1.11-10.67-1.42l24.23,56.76c.46,1.09.46,2.2,0,3.29l-6.87,16.31c2.44,12.97,16.65,20.1,32,21.36,4.07.35,8.22.26,12.25-.22,14.51-1.73,27.52-8.78,29.83-21.14l-.6-1.42Zm-224.53-39.54l17.45,40.72c.46,9.53-65.29,9.53-64.88,0l26.57-62,1.32-3.09,1.2-2.8,3.34-7.8,14.99,34.96Zm205.87,46.83c-19.23,2.51-50.52.48-50.2-6.1l32.44-75.68,29.36,68.51,3.08,7.17c.13,2.94-6.05,4.97-14.67,6.1Z"/>
      <path class="cls-3" d="m170.8,115.4v81.96c0,3.16,2.57,5.77,5.73,5.77h9.67c1.19,0,2.2.96,2.2,2.15v2.2h-52.27v-2.2c0-1.19,1.01-2.15,2.2-2.15h9.67c3.16,0,5.73-2.61,5.73-5.77v-81.27c1.51,1.05,3.16,1.97,4.99,2.79l3.12,1.37,3.07-1.37c2.2-1.01,4.17-2.15,5.91-3.48h0Zm-47.55,103.31h78.02v-4.76c0-2.66-2.15-4.81-4.81-4.81h-68.4c-2.66,0-4.81,2.15-4.81,4.81v4.76Z"/>
      <path class="cls-1" d="m224.33,61.82l-39.78-3.5s.07-.02.14-.05c1.84-.49,21.02-3.5,39.63,3.55Z"/>
    </g>
  </g>
</svg>