<?xml version="1.0" encoding="utf-8"?>
<!-- Generator: Adobe Illustrator 27.9.0, SVG Export Plug-In . SVG Version: 6.00 Build 0)  -->
<svg version="1.1" xmlns="http://www.w3.org/2000/svg" xmlns:xlink="http://www.w3.org/1999/xlink" x="0px" y="0px"
	 viewBox="0 0 465.26 465.26" style="enable-background:new 0 0 465.26 465.26;" xml:space="preserve">
<style type="text/css">
	.st0{fill:url(#SVGID_1_);}
	.st1{fill:#11557A;stroke:url(#SVGID_00000115473127841094090650000005606890659207336615_);stroke-miterlimit:10;}
	.st2{fill:#11557A;}
	.st3{fill:#B49664;}
	.st4{fill-rule:evenodd;clip-rule:evenodd;fill:#11557A;}
	.st5{fill-rule:evenodd;clip-rule:evenodd;fill:#B49664;}
	.st6{fill-rule:evenodd;clip-rule:evenodd;fill:#FFFFFF;}
	.st7{fill:#FFFFFF;}
	.st8{font-family:'CyclesW00SC-ElevenRmSC';}
	.st9{font-size:41.5941px;}
</style>
<g id="BACKGROUND">
</g>
<g id="LOGO">
	<g>
		<g>
			<path class="st7" d="M80.74,297.1c0,6.43-1.45,12.11-4.35,17.05c-2.9,4.95-6.87,8.77-11.91,11.48c-2.65,1.45-5.72,2.52-9.21,3.21
				c-3.5,0.69-7.01,1.04-10.54,1.04c-0.82,0-2.35-0.05-4.58-0.14c-2.24-0.09-4.77-0.14-7.61-0.14c-4.16,0-7.46,0.08-9.92,0.24
				c-2.46,0.16-4,0.24-4.63,0.24c-0.25,0-0.38-0.35-0.38-1.04c0-0.31,0.06-0.6,0.19-0.85c0.19-0.19,0.31-0.28,0.38-0.28
				c0.38-0.06,0.94-0.14,1.7-0.24c0.76-0.09,1.54-0.22,2.36-0.38c0.82-0.16,1.56-0.33,2.22-0.52c0.66-0.19,1.09-0.41,1.28-0.66
				c0.06-0.19,0.16-0.38,0.28-0.57c0.13-0.19,0.22-0.53,0.28-1.04c0.06-0.5,0.13-1.2,0.19-2.08c0.06-0.88,0.09-2.08,0.09-3.59
				v-40.72c0-1.51-0.02-2.69-0.05-3.54c-0.03-0.85-0.09-1.5-0.19-1.94c-0.09-0.44-0.19-0.74-0.28-0.9
				c-0.09-0.16-0.17-0.33-0.24-0.52c-0.19-0.25-0.61-0.46-1.28-0.61c-0.66-0.16-1.39-0.28-2.17-0.38c-0.79-0.09-1.58-0.16-2.36-0.19
				c-0.79-0.03-1.37-0.11-1.75-0.24c-0.32-0.13-0.49-0.27-0.52-0.43c-0.03-0.16-0.05-0.36-0.05-0.61c0-0.13,0-0.27,0-0.43
				c0-0.16,0.03-0.27,0.09-0.33c0.06-0.19,0.22-0.28,0.47-0.28h9.17c0.5,0,1.81-0.03,3.92-0.09c2.11-0.06,4.39-0.11,6.85-0.14
				c2.46-0.03,4.74-0.08,6.85-0.14c2.11-0.06,3.45-0.09,4.02-0.09c4.79,0,9.13,0.74,13.04,2.22c3.91,1.48,7.24,3.54,10.02,6.19
				c2.77,2.65,4.9,5.8,6.38,9.45C80,288.76,80.74,292.76,80.74,297.1z M71.57,299.75c0-7.68-1.21-13.76-3.64-18.24
				c-2.43-4.47-5.69-7.65-9.78-9.54c-1.64-0.76-3.54-1.32-5.72-1.7c-2.17-0.38-4.27-0.57-6.28-0.57c-0.57,0-1.32,0.03-2.27,0.09
				c-0.94,0.06-1.95,0.14-3.02,0.24c-1.07,0.09-2.14,0.2-3.21,0.33c-1.07,0.13-2.05,0.28-2.93,0.47v48c0,2.02,0.17,3.48,0.52,4.39
				c0.35,0.91,0.87,1.65,1.56,2.22c0.44,0.32,1.05,0.58,1.84,0.8c0.79,0.22,1.64,0.38,2.55,0.47c0.91,0.09,1.81,0.16,2.69,0.19
				c0.88,0.03,1.61,0.05,2.17,0.05c3.15,0,6.25-0.52,9.31-1.56c3.05-1.04,5.78-2.65,8.17-4.82c2.39-2.17,4.33-4.98,5.81-8.41
				C70.83,308.74,71.57,304.6,71.57,299.75z"/>
			<path class="st7" d="M162.85,297.67c0,5.04-0.85,9.59-2.55,13.65c-1.7,4.06-4,7.53-6.9,10.39c-2.9,2.87-6.28,5.07-10.16,6.61
				c-3.87,1.54-7.98,2.32-12.33,2.32c-4.72,0-9.02-0.85-12.9-2.55c-3.87-1.7-7.18-3.97-9.92-6.8c-2.74-2.83-4.85-6.09-6.33-9.78
				c-1.48-3.68-2.22-7.48-2.22-11.39c0-4.98,0.82-9.48,2.46-13.51c1.64-4.03,3.94-7.48,6.9-10.35c2.96-2.87,6.46-5.09,10.49-6.66
				c4.03-1.57,8.47-2.36,13.32-2.36c4.85,0,9.15,0.84,12.9,2.5c3.75,1.67,6.9,3.89,9.45,6.66c2.55,2.77,4.49,6,5.81,9.69
				C162.19,289.78,162.85,293.64,162.85,297.67z M153.59,300.32c0-4.79-0.55-9.05-1.65-12.8c-1.1-3.75-2.65-6.93-4.63-9.54
				c-1.98-2.61-4.36-4.6-7.13-5.95c-2.77-1.35-5.86-2.03-9.26-2.03c-3.15,0-6.06,0.57-8.74,1.7c-2.68,1.13-5.02,2.83-7.04,5.1
				c-2.02,2.27-3.59,5.13-4.72,8.6c-1.13,3.47-1.7,7.53-1.7,12.19c0,5.17,0.71,9.65,2.13,13.46c1.42,3.81,3.23,6.98,5.43,9.5
				c2.2,2.52,4.68,4.39,7.42,5.62c2.74,1.23,5.43,1.84,8.08,1.84c6.8,0,12.14-2.39,16.02-7.18
				C151.65,316.03,153.59,309.2,153.59,300.32z"/>
			<path class="st7" d="M233.15,324.69c-3.21,2.21-6.49,3.75-9.83,4.63c-3.34,0.88-6.96,1.32-10.87,1.32
				c-4.66,0-8.9-0.85-12.71-2.55c-3.81-1.7-7.06-3.95-9.73-6.76c-2.68-2.8-4.74-5.98-6.19-9.54c-1.45-3.56-2.17-7.2-2.17-10.91
				c0-5.29,1.01-10.03,3.02-14.22c2.02-4.19,4.69-7.73,8.03-10.63c3.34-2.9,7.15-5.12,11.43-6.66c4.28-1.54,8.72-2.31,13.32-2.31
				c2.83,0,5.45,0.17,7.84,0.52c2.39,0.35,4.22,0.68,5.48,0.99c0.76,0.25,1.23,0.49,1.42,0.71c0.19,0.22,0.35,0.61,0.47,1.18
				c0.13,0.32,0.17,1.04,0.14,2.17c-0.03,1.13-0.05,2.14-0.05,3.02v7.37c0,0.25-0.35,0.41-1.04,0.47c-0.32,0.06-0.55,0.06-0.71,0
				c-0.16-0.06-0.33-0.09-0.52-0.09c-0.25-1.26-0.63-2.61-1.13-4.06c-0.51-1.45-1.26-2.93-2.27-4.44c-1.26-1.83-2.93-3.15-5.01-3.97
				c-2.08-0.82-4.19-1.23-6.33-1.23c-3.02,0-6.03,0.55-9.02,1.65c-2.99,1.1-5.67,2.82-8.03,5.15c-2.36,2.33-4.27,5.28-5.72,8.83
				c-1.45,3.56-2.17,7.83-2.17,12.8c0,5.04,0.76,9.39,2.27,13.04c1.51,3.65,3.43,6.66,5.76,9.02c2.33,2.36,4.91,4.13,7.75,5.29
				c2.83,1.17,5.58,1.75,8.22,1.75c1.64,0,3.13-0.05,4.49-0.14c1.35-0.09,2.66-0.28,3.92-0.57c1.26-0.28,2.52-0.66,3.78-1.13
				c1.26-0.47,2.61-1.12,4.06-1.94l0.76-0.47c0.31,0,0.53,0.13,0.66,0.38L233.15,324.69z"/>
			<path class="st7" d="M310.25,268.95c0,0.38-0.25,0.63-0.76,0.76c-0.32,0.13-0.84,0.21-1.56,0.24c-0.73,0.03-1.34,0.11-1.84,0.24
				c-0.63,0.19-1.13,0.41-1.51,0.66c-0.38,0.25-0.69,0.63-0.94,1.13c-0.25,0.51-0.43,1.21-0.52,2.13c-0.09,0.91-0.14,2.09-0.14,3.54
				c-0.06,3.28-0.11,6.49-0.14,9.64c-0.03,3.15-0.02,6.33,0.05,9.54c0,1.7-0.02,3.5-0.05,5.39c-0.03,1.89-0.16,3.81-0.38,5.76
				c-0.22,1.95-0.57,3.86-1.04,5.72c-0.47,1.86-1.09,3.58-1.84,5.15c-1.7,3.53-4.24,6.38-7.61,8.55c-3.37,2.17-7.45,3.26-12.24,3.26
				c-3.21,0-6.27-0.52-9.17-1.56c-2.9-1.04-5.36-2.63-7.37-4.77c-1.89-1.95-3.34-4.35-4.35-7.18c-1.01-2.83-1.51-6.08-1.51-9.73
				v-29.1c0-1.76-0.05-3.18-0.14-4.25c-0.09-1.07-0.3-1.86-0.61-2.36c-0.19-0.25-0.65-0.49-1.37-0.71c-0.72-0.22-1.5-0.41-2.31-0.57
				c-0.82-0.16-1.59-0.28-2.32-0.38c-0.72-0.09-1.21-0.17-1.46-0.24c-0.38-0.06-0.57-0.41-0.57-1.04v-0.85
				c0.06-0.19,0.16-0.28,0.28-0.28c0.44,0,1.83,0.08,4.16,0.24c2.33,0.16,5.1,0.24,8.31,0.24c1.7,0,3.15,0,4.35,0
				c1.2,0,2.28-0.01,3.26-0.05c0.98-0.03,1.94-0.08,2.88-0.14c0.94-0.06,2.02-0.13,3.21-0.19c0.13,0,0.2,0.09,0.24,0.28
				c0.03,0.19,0.05,0.38,0.05,0.57c0,0.25-0.03,0.51-0.09,0.76c-0.13,0.13-0.35,0.17-0.66,0.14c-0.32-0.03-0.69,0.02-1.13,0.14
				c-1.07,0.19-2.31,0.46-3.73,0.8c-1.42,0.35-2.44,0.93-3.07,1.75c-0.51,0.63-0.82,1.67-0.94,3.12c-0.13,1.45-0.19,3.12-0.19,5.01
				v22.2c0,8.06,1.13,13.98,3.4,17.76c1.57,2.65,3.54,4.46,5.91,5.43c2.36,0.98,4.83,1.46,7.42,1.46c3.34,0,6.27-0.96,8.79-2.88
				c2.52-1.92,4.31-4.21,5.39-6.85c1.38-3.46,2.2-6.83,2.46-10.11c0.25-3.27,0.38-6.83,0.38-10.68c0-1.57-0.03-3.21-0.09-4.91
				c-0.06-1.7-0.17-3.37-0.33-5.01c-0.16-1.64-0.33-3.21-0.52-4.72c-0.19-1.51-0.38-2.9-0.57-4.16c-0.51-3.15-1.48-5.34-2.93-6.57
				c-1.45-1.23-3.53-1.94-6.24-2.13h-0.47c-0.13,0-0.22-0.03-0.28-0.09v-0.76c0-0.06,0-0.19,0-0.38c0-0.19,0.03-0.28,0.09-0.28
				c1.38,0.13,3.05,0.24,5.01,0.33c1.95,0.09,4.47,0.14,7.56,0.14c2.39,0,4.46-0.08,6.19-0.24c1.73-0.16,2.79-0.24,3.17-0.24
				c0.25,0,0.41,0.09,0.47,0.28V268.95z"/>
			<path class="st7" d="M380.74,329.32c0,0.31-0.11,0.5-0.33,0.57c-0.22,0.06-0.42,0.09-0.61,0.09c-0.63,0.06-1.43,0.14-2.41,0.24
				c-0.98,0.09-1.88,0.14-2.69,0.14c-2.39,0-4.33-0.21-5.81-0.61c-1.48-0.41-2.57-0.87-3.26-1.37c-0.94-0.69-1.95-1.83-3.02-3.4
				c-0.76-1.2-1.59-2.55-2.5-4.06c-0.91-1.51-1.91-3.21-2.98-5.1c-0.57-1.01-1.18-2.11-1.84-3.31c-0.66-1.2-1.34-2.38-2.03-3.54
				c-0.69-1.17-1.36-2.25-1.98-3.26c-0.63-1.01-1.13-1.86-1.51-2.55c-0.38-0.5-0.69-0.85-0.94-1.04c-0.25-0.19-0.63-0.28-1.13-0.28
				c-0.63,0-1.06,0.02-1.28,0.05c-0.22,0.03-0.65,0.05-1.28,0.05c-0.69,0-1.51,0-2.46,0s-1.67-0.03-2.17-0.1v17.01
				c0,1.83,0.08,3.24,0.24,4.25c0.16,1.01,0.49,1.83,0.99,2.46c0.38,0.51,0.96,0.91,1.75,1.23c0.79,0.32,1.64,0.58,2.55,0.8
				c0.91,0.22,1.78,0.38,2.6,0.47c0.82,0.09,1.45,0.17,1.89,0.24c0.31,0,0.47,0.06,0.47,0.19v1.51c0,0.13-0.06,0.16-0.19,0.09
				c-0.13-0.06-0.25-0.09-0.38-0.09c-2.14-0.13-4.22-0.22-6.24-0.28c-2.02-0.06-4.57-0.09-7.65-0.09c-3.4,0-6.13,0.08-8.17,0.24
				c-2.05,0.16-3.39,0.24-4.02,0.24c-0.32,0-0.47-0.32-0.47-0.94c0-0.38,0.06-0.69,0.19-0.94c0.06-0.13,0.16-0.22,0.28-0.28
				c0.38-0.06,0.93-0.16,1.65-0.28c0.72-0.13,1.46-0.27,2.22-0.43c0.76-0.16,1.45-0.33,2.08-0.52c0.63-0.19,1.04-0.41,1.23-0.66
				c0.19-0.31,0.38-0.94,0.57-1.89c0.19-0.94,0.28-2.65,0.28-5.1v-40.91c0-1.51-0.02-2.69-0.05-3.54c-0.03-0.85-0.08-1.5-0.14-1.94
				c-0.06-0.44-0.14-0.76-0.24-0.94c-0.09-0.19-0.2-0.35-0.33-0.47c-0.19-0.25-0.58-0.46-1.18-0.61c-0.6-0.16-1.28-0.28-2.03-0.38
				c-0.76-0.09-1.51-0.16-2.27-0.19c-0.76-0.03-1.36-0.08-1.8-0.14c-0.19-0.06-0.28-0.19-0.28-0.38c0-0.19-0.03-0.41-0.09-0.66
				v-0.76c0.06-0.25,0.22-0.38,0.47-0.38c2.02,0,3.78-0.01,5.29-0.05c1.51-0.03,2.71-0.05,3.59-0.05c0.5,0,1.46-0.01,2.88-0.05
				c1.42-0.03,2.93-0.08,4.54-0.14c1.61-0.06,3.13-0.11,4.58-0.14c1.45-0.03,2.46-0.05,3.02-0.05c2.77,0,5.21,0.22,7.32,0.66
				c2.11,0.44,3.92,1.07,5.43,1.89c2.65,1.45,4.54,3.31,5.67,5.57c1.13,2.27,1.7,4.82,1.7,7.65c0,2.33-0.55,4.58-1.65,6.76
				c-1.1,2.17-2.38,3.89-3.83,5.15c-1.13,1.01-2.46,1.94-3.97,2.79c-1.51,0.85-2.74,1.43-3.68,1.75c0.44,0.76,1.04,1.73,1.8,2.93
				c0.76,1.2,1.56,2.47,2.41,3.83c0.85,1.36,1.73,2.71,2.65,4.06c0.91,1.35,1.75,2.6,2.5,3.73c1.57,2.33,3.07,4.38,4.49,6.14
				c1.42,1.76,2.85,3.43,4.3,5.01c1.13,1.26,2.23,2.14,3.31,2.65c0.5,0.25,1.02,0.46,1.56,0.61c0.53,0.16,1.02,0.27,1.46,0.33
				c0.13,0,0.31,0.02,0.57,0.05C380.61,328.84,380.74,329.01,380.74,329.32z M359.76,283.21c0-4.85-1.12-8.33-3.35-10.44
				c-2.24-2.11-5.18-3.17-8.83-3.17c-1.64,0-3.04,0.13-4.21,0.38c-1.17,0.25-2.13,0.54-2.88,0.85v27.87
				c0.76,0.13,1.67,0.24,2.74,0.33c1.07,0.1,2.14,0.14,3.21,0.14c2.02,0,4.03-0.46,6.05-1.37c2.02-0.91,3.65-2.35,4.91-4.3
				C358.97,290.93,359.76,287.5,359.76,283.21z"/>
			<path class="st7" d="M447.64,328.95c0,0.13,0,0.35,0,0.66s-0.09,0.47-0.28,0.47c-0.32,0-0.85-0.03-1.61-0.09
				c-0.76-0.06-1.64-0.11-2.65-0.14c-1.01-0.03-2.09-0.08-3.26-0.14c-1.17-0.06-2.28-0.09-3.35-0.09c-2.77,0-5.21,0.03-7.32,0.09
				c-2.11,0.06-3.67,0.16-4.68,0.28v-1.51c1.95-0.19,3.5-0.5,4.63-0.94c1.13-0.44,1.7-1.42,1.7-2.93c0-0.63-0.22-1.68-0.66-3.17
				c-0.44-1.48-0.98-3.07-1.61-4.77c-0.63-1.7-1.25-3.34-1.84-4.91c-0.6-1.57-1.09-2.77-1.46-3.59c-0.25-0.06-0.82-0.11-1.7-0.14
				c-0.88-0.03-1.91-0.05-3.07-0.05c-1.17,0-2.36,0-3.59,0c-1.23,0-2.31,0-3.26,0c-2.02,0-3.91,0.02-5.67,0.05
				c-1.76,0.03-2.99,0.08-3.69,0.14c-0.76,2.21-1.51,4.36-2.27,6.47c-0.76,2.11-1.48,4.33-2.17,6.66c-0.19,0.63-0.32,1.25-0.38,1.84
				c-0.06,0.6-0.09,1.12-0.09,1.56c0,0.69,0.24,1.28,0.71,1.75c0.47,0.47,1.04,0.85,1.7,1.13c0.66,0.28,1.37,0.51,2.13,0.66
				c0.76,0.16,1.42,0.24,1.98,0.24v1.51c-1.07-0.06-2.41-0.14-4.02-0.24c-1.61-0.09-3.73-0.14-6.38-0.14
				c-2.08,0-3.94,0.08-5.57,0.24c-1.64,0.16-2.65,0.24-3.02,0.24c-0.13,0-0.19-0.32-0.19-0.94c0-0.13-0.02-0.28-0.05-0.47
				c-0.03-0.19-0.02-0.31,0.05-0.38c0.13-0.31,0.47-0.49,1.04-0.52c0.57-0.03,1.01-0.08,1.32-0.14c0.63-0.13,1.29-0.3,1.98-0.52
				c0.69-0.22,1.29-0.55,1.8-0.99c0.31-0.31,0.66-0.77,1.04-1.37c0.38-0.6,0.69-1.15,0.94-1.65c1.26-2.83,2.46-5.65,3.59-8.46
				c1.13-2.8,2.24-5.62,3.31-8.46c1.13-2.9,2.32-5.98,3.54-9.26c1.23-3.27,2.46-6.53,3.68-9.78c1.23-3.24,2.41-6.44,3.54-9.59
				c1.13-3.15,2.17-6.05,3.12-8.69c0.31-1.07,0.88-1.61,1.7-1.61c0.76,0,1.29,0.44,1.61,1.32c0.88,2.52,1.9,5.37,3.07,8.55
				c1.16,3.18,2.39,6.5,3.68,9.97c1.29,3.47,2.6,6.93,3.92,10.39c1.32,3.47,2.58,6.74,3.78,9.83c0.57,1.51,1.16,3.01,1.8,4.49
				c0.63,1.48,1.23,2.9,1.79,4.25c0.57,1.36,1.09,2.6,1.56,3.73c0.47,1.13,0.83,2.05,1.09,2.74c0.25,0.57,0.53,1.13,0.85,1.7
				c0.31,0.57,0.66,1.1,1.04,1.61c0.13,0.19,0.43,0.36,0.9,0.52c0.47,0.16,0.96,0.33,1.46,0.52c0.5,0.19,1.01,0.35,1.51,0.47
				c0.5,0.13,0.88,0.22,1.13,0.28c0.13,0.06,0.3,0.14,0.52,0.24c0.22,0.09,0.36,0.17,0.43,0.24
				C447.57,328.22,447.64,328.51,447.64,328.95z M424.2,305.14c-1.45-4.22-2.98-8.47-4.58-12.76c-1.61-4.28-3.23-8.69-4.87-13.23
				c-1.51,4.22-3.01,8.41-4.49,12.57c-1.48,4.16-3.13,8.63-4.96,13.42c0.31,0.06,0.82,0.11,1.51,0.14c0.69,0.03,1.45,0.05,2.27,0.05
				c0.82,0,1.64,0,2.46,0c0.82,0,1.54,0,2.17,0c0.88,0,1.87,0,2.98,0c1.1,0,2.16,0,3.17,0c1.01,0,1.9-0.01,2.69-0.05
				C423.34,305.25,423.89,305.2,424.2,305.14z"/>
		</g>
		<g>
			<g>
				<path class="st7" d="M346.5,156.68c0,10.04-1.63,19.22-4.86,27.65c-2.97,7.56-6.88,14.35-11.72,20.38
					c-0.38-9.91-2.62-19.35-6.41-27.96c2.29-6.23,3.43-12.92,3.43-20.07c0-7.68-1.4-14.91-4.1-21.82
					c-2.81-6.81-7.12-13.18-12.86-18.9c-5.72-5.72-12.1-9.94-18.9-12.75c-6.92-2.81-14.15-4.21-21.82-4.21H158.22v29.72
					c-0.14,0.03-0.28,0.07-0.41,0.1c-4.02,1-7.53,1.48-10.73,1.48c-2.84,0-5.42-0.39-7.88-1.17c-0.18-0.06-0.35-0.12-0.52-0.18
					v-49.5h130.6c14.47,0,27.43,3.45,38.78,10.37c11.66,7.02,21.05,16.42,28.19,28.19C343.04,129.45,346.5,142.31,346.5,156.68z"/>
			</g>
			<path class="st7" d="M306.52,203.75h-3.63c0.34-0.25,0.66-0.51,0.99-0.77C304.76,203.19,305.65,203.45,306.52,203.75z"/>
			<path class="st6" d="M222.72,103.37c-2.36,7.85-13.81,17.89,0,22.38C236.57,121.25,225.12,111.21,222.72,103.37z M317.65,223.34
				c-1.6-0.79-3.06-1.69-4.39-2.69c-1.12-0.83-2.14-1.74-3.06-2.73c-0.95-0.95-1.96-2.32-3.11-4.13
				c-6.73,1.68-14.21,1.82-21.05,0.34c-0.76-0.15-1.51-0.34-2.25-0.54c0.03,0.28,0.05,0.55,0.07,0.8c0.03,0.3,0.03,0.58,0.03,0.84
				c0,9.22-9.52,13.52-28.58,12.76v8.11h82.99v-8.11C329.86,227.53,322.99,225.99,317.65,223.34z M161.26,215.23
				c0-0.43,0.03-0.85,0.07-1.38c-7.45,1.83-15.78,1.74-23.14-0.3c-1.21,1.9-2.26,3.35-3.24,4.36c-5.64,6.04-15,9.35-28.09,10.08
				v8.11h82.99v-8.11C170.78,228.75,161.26,224.45,161.26,215.23z M321.89,193.74l-3.07-7.3l-20.56-48.85
				c4.23-1.05,8.3-3.61,12.57-8.54c-12.77,6.8-27.43,0.43-42.03-4.49c-0.11-0.03-0.22-0.08-0.31-0.12
				c-0.07-0.03-0.14-0.05-0.21-0.09c-0.65-0.31-1.15-0.76-1.55-1.32c-0.02-0.02-0.02-0.03-0.02-0.03c-0.05-0.07-0.09-0.14-0.14-0.22
				l-0.51-0.03c-13.33-5.05-25.61-1.94-26.92-1.59c-0.05,0.02-0.09,0.03-0.1,0.03h-0.01c-5.72,1.7-11.19,5.4-16.31,12.21
				c-16.35-21.83-36.59-11.88-56.09-5.41c-2.82,0.93-5.63,1.8-8.41,2.48c-3.79,0.94-7.5,1.53-11.14,1.53
				c-2.87,0-5.67-0.38-8.41-1.26c-1.36-0.44-2.7-1-4.02-1.7c1.36,1.57,2.69,2.91,4.02,4.03c2.8,2.35,5.56,3.75,8.41,4.49
				c0.24,0.07,0.49,0.13,0.73,0.18l-0.13,0.31l-0.6,1.43l-0.93,2.22l-1.82,4.29l-20.51,48.74c3.84,20.61,49.19,20.61,53.06,0
				l-12.35-29.33l-11.44-27.17c4.09-0.06,8.5-0.97,13.53-2.07c0.53-0.11,1.08-0.23,1.63-0.35c1.11-0.23,2.23,0.13,2.95,1.02
				c0.76,0.89,0.92,2.03,0.46,3.11l-5.03,11.87l-0.15,0.34c-0.33,0.78-0.33,1.57,0,2.37l0.15,0.34l7.82,18.59l15.88-37.38
				c1.02-2.43,3.42-3.87,6.04-3.64c6.17,0.52,12.11,2.66,17.13,8.36c3.71,4.21-2.5,13.98,9.05,19.27l0.16,0.09l0.2-0.09
				c11.56-5.28,5.35-15.06,9.06-19.27c9.52-10.79,22.28-8.85,33.6-7.18c11.45,1.68,19.95,4.72,27.47,4.63l-7.12,16.97
				c-0.49,1.14-1.54,1.83-2.79,1.83c-1.25,0.03-2.3-0.69-2.79-1.81l-5.21-12.17c-3.38-0.72-6.93-1.45-10.67-2
				c-2.5-0.36-5.09-0.79-7.64-1.02l17.36,40.66c0.33,0.78,0.33,1.57,0,2.36l-4.92,11.68c1.75,9.29,11.93,14.4,22.92,15.3
				c2.92,0.25,5.89,0.19,8.78-0.15c10.39-1.24,19.71-6.29,21.36-15.14L321.89,193.74z M161.07,165.42l12.5,29.17
				c0.33,6.82-46.76,6.82-46.47,0l19.03-44.41l0.95-2.21l0.86-2l2.39-5.58L161.07,165.42z M308.52,198.96
				c-13.78,1.8-36.18,0.34-35.96-4.37l23.23-54.21l21.03,49.07l2.2,5.14C319.12,196.7,314.69,198.15,308.52,198.96z"/>
			<path class="st6" d="M222.7,97.44l-0.46,1.56h0.94L222.7,97.44z"/>
			<path class="st6" d="M222.72,103.37c-2.36,7.85-13.81,17.89,0,22.38C236.57,121.25,225.12,111.21,222.72,103.37z M317.65,223.34
				c-1.6-0.79-3.06-1.69-4.39-2.69c-1.12-0.83-2.14-1.74-3.06-2.73c-0.95-0.95-1.96-2.32-3.11-4.13
				c-6.73,1.68-14.21,1.82-21.05,0.34c-0.76-0.15-1.51-0.34-2.25-0.54c0.03,0.28,0.05,0.55,0.07,0.8c0.03,0.3,0.03,0.58,0.03,0.84
				c0,9.22-9.52,13.52-28.58,12.76v8.11h82.99v-8.11C329.86,227.53,322.99,225.99,317.65,223.34z M161.26,215.23
				c0-0.43,0.03-0.85,0.07-1.38c-7.45,1.83-15.78,1.74-23.14-0.3c-1.21,1.9-2.26,3.35-3.24,4.36c-5.64,6.04-15,9.35-28.09,10.08
				v8.11h82.99v-8.11C170.78,228.75,161.26,224.45,161.26,215.23z M321.89,193.74l-3.07-7.3l-20.56-48.85
				c4.23-1.05,8.3-3.61,12.57-8.54c-4.5,2.4-9.59,3.21-14.65,2.89c-5.33-0.33-10.53-1.75-15.59-3.37c-2.67-0.86-5.37-1.65-8.01-2.62
				c-3.85-1.43-7.37-3.7-11.37-4.69c-0.97-0.24-1.94-0.45-2.92-0.63c-2.48-0.44-4.99-0.68-7.5-0.72c-3.42-0.06-6.86,0.22-10.21,0.92
				c-0.47,0.1-0.97,0.18-1.43,0.34c-0.05,0.02-0.09,0.03-0.11,0.03c-5.72,1.7-11.19,5.4-16.31,12.21
				c-16.35-21.83-36.59-11.88-56.09-5.41c-2.82,0.93-5.63,1.8-8.41,2.48c-3.79,0.94-7.5,1.53-11.14,1.53
				c-2.87,0-5.67-0.38-8.41-1.26c-1.36-0.44-2.7-1-4.02-1.7c1.36,1.57,2.69,2.91,4.02,4.03c2.8,2.35,5.56,3.75,8.41,4.49
				c0.24,0.07,0.49,0.13,0.73,0.18l-0.13,0.31l-0.6,1.43l-0.93,2.22l-1.82,4.29l-20.51,48.74c3.84,20.61,49.19,20.61,53.06,0
				l-12.35-29.33l-11.44-27.17c4.09-0.06,8.5-0.97,13.53-2.07c0.53-0.11,1.08-0.23,1.63-0.35c1.11-0.23,2.23,0.13,2.95,1.02
				c0.76,0.89,0.92,2.03,0.46,3.11l-5.03,11.87l-0.15,0.34c-0.33,0.78-0.33,1.57,0,2.37l0.15,0.34l7.82,18.59l15.88-37.38
				c1.02-2.43,3.42-3.87,6.04-3.64c6.17,0.52,12.11,2.66,17.13,8.36c3.71,4.21-2.5,13.98,9.05,19.27l0.16,0.09l0.2-0.09
				c11.56-5.28,5.35-15.06,9.06-19.27c9.52-10.79,22.28-8.85,33.6-7.18c11.45,1.68,19.95,4.72,27.47,4.63l-7.12,16.97
				c-0.49,1.14-1.54,1.83-2.79,1.83c-1.25,0.03-2.3-0.69-2.79-1.81l-5.21-12.17c-3.38-0.72-6.93-1.45-10.67-2
				c-2.5-0.36-5.09-0.79-7.64-1.02l17.36,40.66c0.33,0.78,0.33,1.57,0,2.36l-4.92,11.68c1.75,9.29,11.93,14.4,22.92,15.3
				c2.92,0.25,5.89,0.19,8.78-0.15c10.39-1.24,19.71-6.29,21.36-15.14L321.89,193.74z M161.07,165.42l12.5,29.17
				c0.33,6.82-46.76,6.82-46.47,0l19.03-44.41l0.95-2.21l0.86-2l2.39-5.58L161.07,165.42z M308.52,198.96
				c-13.78,1.8-36.18,0.34-35.96-4.37l23.23-54.21l21.03,49.07l2.2,5.14C319.12,196.7,314.69,198.15,308.52,198.96z"/>
			<path class="st6" d="M229.19,162.1v58.7c0,2.26,1.84,4.13,4.1,4.13h6.92c0.85,0,1.58,0.69,1.58,1.54v1.58
				c-10.14,0-27.3,0-37.44,0v-1.58c0-0.85,0.72-1.54,1.58-1.54h6.92c2.26,0,4.1-1.87,4.1-4.13V162.6c1.08,0.75,2.26,1.41,3.58,2
				l2.23,0.98l2.2-0.98C226.53,163.88,227.94,163.05,229.19,162.1L229.19,162.1z M195.13,236.1h55.88v-3.41
				c0-1.9-1.54-3.45-3.45-3.45h-48.99c-1.9,0-3.45,1.54-3.45,3.45V236.1z"/>
			<path class="st6" d="M267.53,123.72l-28.49-2.51c0.02-0.01,0.05-0.02,0.1-0.03C240.46,120.82,254.21,118.67,267.53,123.72z"/>
		</g>
		<text transform="matrix(1 0 0 1 86.0301 374.9551)" class="st7 st8 st9">Legal Nexus</text>
	</g>
</g>
</svg>
